M48
;Layer_Color=9474304
;FILE_FORMAT=2:5
INCH,TZ
;TYPE=PLATED
T1F00S00C0.01200
T2F00S00C0.01299
T3F00S00C0.03110
T4F00S00C0.03346
T6F00S00C0.03543
T7F00S00C0.04016
T8F00S00C0.05906
T9F00S00C0.06299
T10F00S00C0.07874
;TYPE=NON_PLATED
T11F00S00C0.12008
T12F00S00C0.12795
%
T01
X29740Y17236
Y25307
Y33378
X60039Y29528
X64173
X67913
X89189Y33378
Y25307
Y17236
X76772Y48228
Y53150
Y58071
X38386Y68898
Y73819
X15748Y63976
Y59055
X158945Y62232
Y66268
Y70303
X177055
Y66268
Y62232
X194697Y52276
X198032Y10039
X214709Y3394
X231693Y10039
X248709Y3394
X265355Y10138
X299606Y20079
Y31102
X299630Y36173
X300000Y52362
X299606Y68504
X249803Y39567
X180709Y3394
X164370Y10087
X320472Y14961
X324366Y31091
X332283Y30709
X337413Y30665
X349114Y20079
X352854
X365354
X376575Y40650
X398031Y40945
X400000Y28740
Y20079
X419291Y42512
X417323Y64961
X397638Y62205
Y68898
X370866Y69685
X340650Y63878
X337894Y61713
X328625Y58481
X324366Y47047
X324284Y74016
X346063Y54331
X350492Y40650
X488781Y150648
X446850Y152559
X431496Y177362
X408565Y174810
Y181503
X387598Y197441
X380906
X379921Y210735
Y217428
X408565Y230420
X368110Y181496
X364173Y177559
X324803Y212598
X320079
X315354
X323228Y85370
X344543
X384252Y83071
X398031Y88976
X419291Y82512
X308563Y147047
X310236Y159055
X300394
Y168898
X310236
X293604Y155047
X284744Y151047
X262697
Y155047
Y147047
X253754Y103051
X230512Y103051
X172622Y88614
Y84579
X168095
Y88614
X163567
Y84579
X158760Y203839
X188977Y232480
X239941Y185728
X297244Y212500
X301575
X306299
X311024Y212598
X89075Y228937
X76772
X32480Y142224
X14764Y91535
Y86614
X38386Y78740
X75787Y84646
X125441Y92551
X84252Y239961
Y243961
X71752Y253839
Y258937
X71752Y265628
Y269628
Y273628
Y277628
Y281628
X42028Y248937
Y243839
Y238937
Y233839
X30941Y310630
X34941Y319882
X92323Y335630
X99410Y375984
X103976
X112500
Y379921
Y383858
X95118Y383858
X80512Y379921
X118399Y363583
X122336
X126273
X144836Y368012
Y372047
Y376140
Y386607
X149836
X139764Y386614
X134941
X158465Y386811
X173327Y379921
X183071Y383858
X187992Y375984
X191929
X200453
Y379921
Y383858
X223005Y386573
X227828
X232788Y386607
X237789
X247047Y386606
X232788Y376140
Y372047
Y368012
X214226Y363583
X210289
X206351
X267567Y361417
X271307Y361417
X275047Y361417
X277307Y343158
X283465Y335728
X294291Y346378
X298130
X303681Y340024
X293984Y381102
Y385612
X256299Y335827
X182874Y317913
X193209Y235433
X297244Y234252
X301575
X306299
X311024
X306653Y257031
Y283142
X313347
X323819Y292323
X334646
X343602Y312697
X341961Y337689
X331350Y337720
X321382
X326870Y361024
X331004
X351599Y373064
Y376993
X373886Y380874
Y370512
X394094Y376150
Y386701
X370571Y344756
X352748Y337689
X345472Y258661
X339567
X331201Y256890
X313347Y257031
X315354Y234252
X320079
X324803
X362205Y244094
X368110
X408565Y240263
Y250105
X431486Y240274
X439437Y336638
X464862Y334866
X312795Y388681
X488799Y359386
X510280Y341902
X494629Y302976
X474713Y293094
X484057Y278499
X510280Y408366
X445433Y397965
X373886Y399882
Y390307
X341461Y402091
X333202Y400063
X332433Y404969
X314961Y404331
X312795Y392815
X348496Y416835
X311024Y404331
X304331
X305039Y391240
X266043Y400063
X239173Y414116
X151083
T02
X335433Y43701
X340158
Y48425
X335433
X337189Y378118
Y382842
Y387567
X332465
X327740
Y382842
X332465
Y378118
X327740
T03
X312795Y118268
X320669
X328543
X336417
X344291
X352165
X360039
X367913
X375787
X383661
Y126142
X375787
X367913
X360039
X352165
X344291
X336417
X328543
X320669
X312795
X304921
X297047
X289173
X281299
X273425
X265551
X257677
X249803
X241929
X234055
X226181
X218307
X210433
X202559
X194685
X186811
X178937
X171063
X163189
X155315
Y118268
X163189
X171063
X178937
X186811
X194685
X202559
X210433
X218307
X226181
X234055
X241929
X249803
X257677
X265551
X273425
X281299
X289173
X297047
X304921
X147441
X139567
X131693
X123819
X115945
X108071
X100197
X92323
X84449
X76575
Y126142
X84449
X92323
X100197
X108071
X115945
X123819
X131693
X139567
X147441
X147441Y299449
X139567
Y307323
X147441
X131693
X123819
X115945
X108071
X100197
X92323
X84449
X76575
Y299449
X84449
X92323
X100197
X108071
X115945
X123819
X131693
X155315
X163189
X171063
X178937
X186811
X194685
X202559
X210433
X218307
X226181
X234055
X241929
X249803
X257677
X265551
X273425
X281299
X289173
X297047
X304921
Y307323
X297047
X289173
X281299
X273425
X265551
X257677
X249803
X241929
X234055
X226181
X218307
X210433
X202559
X194685
X186811
X178937
X171063
X163189
X155315
X312795
X320669
X328543
X336417
X344291
X352165
X360039
X367913
X375787
X383661
Y299449
X375787
X367913
X360039
X352165
X344291
X336417
X328543
X320669
X312795
T04
X176490Y403294
X194010
X106057
X88538
T06
X122818Y39117
X132818
X128030Y62615
Y72615
X118030
Y62615
X108030
Y72615
X441894Y72512
Y62512
Y52512
Y42512
X451894Y47512
Y57512
Y67512
X476693Y124252
X486693
X496693
X506693
Y134252
X496693
X486693
X476693
X466693
Y124252
X451894Y87512
Y77512
X441894Y82512
X353543Y141339
Y151339
Y161339
X15118Y158937
Y148937
Y138937
Y128937
Y118937
X5118
Y128937
Y138937
Y148937
Y158937
Y168937
X15118
Y178937
X5118
Y188937
X15118
Y198937
X5118
Y208937
X15118
Y218937
X5118
Y228937
X15118
Y238937
X5118
Y248937
X15118
Y258937
X5118
Y268937
X15118
Y278937
X5118
Y288937
X15118
Y298937
X5118
Y308937
X15118
X457378Y349386
X467378
Y359386
X457378
T07
X496185Y38909
Y48909
Y81114
Y91114
T08
X497049Y165558
Y260833
T09
X464886Y34520
Y95504
X478390Y318921
X505949
Y385386
X478390
T10
X59465Y10346
T11
X405118Y118937
X55118
Y308937
X405118
T12
X476894Y42512
Y87512
M30
