G04 Layer_Color=16711935*
%FSLAX25Y25*%
%MOIN*%
G70*
G01*
G75*
%ADD90R,0.05918X0.06706*%
%ADD91R,0.06706X0.05918*%
%ADD92R,0.05918X0.07887*%
%ADD93R,0.07887X0.05918*%
%ADD105R,0.05524X0.06312*%
%ADD118C,0.06706*%
%ADD119R,0.06706X0.06706*%
%ADD120C,0.24422*%
%ADD121C,0.07099*%
%ADD122C,0.05721*%
%ADD123O,0.05721X0.08280*%
%ADD124C,0.08674*%
%ADD125R,0.06706X0.06706*%
%ADD126C,0.13595*%
%ADD127C,0.06784*%
%ADD128C,0.10249*%
%ADD129R,0.06312X0.06312*%
%ADD130C,0.06312*%
%ADD131C,0.03600*%
%ADD132R,0.09068X0.03556*%
%ADD133R,0.04540X0.14186*%
%ADD134R,0.13792X0.14186*%
%ADD135R,0.03556X0.05918*%
%ADD136R,0.08674X0.05524*%
%ADD137R,0.06706X0.06312*%
%ADD138R,0.01587X0.04147*%
%ADD139R,0.10642X0.07493*%
%ADD140R,0.13005X0.13595*%
%ADD141C,0.03398*%
D90*
X27953Y90596D02*
D03*
X21260D02*
D03*
X277835Y390063D02*
D03*
X284527D02*
D03*
X269094Y390158D02*
D03*
X262402D02*
D03*
X332480Y43307D02*
D03*
X325787D02*
D03*
X340748Y50787D02*
D03*
X347441D02*
D03*
X340748Y40551D02*
D03*
X347441D02*
D03*
X404921Y69291D02*
D03*
X411614D02*
D03*
X404921Y60492D02*
D03*
X411614D02*
D03*
X60001Y64058D02*
D03*
X66694D02*
D03*
D91*
X277307Y347913D02*
D03*
Y354606D02*
D03*
X332283Y50197D02*
D03*
Y56890D02*
D03*
X25591Y56685D02*
D03*
Y49992D02*
D03*
X76198Y73540D02*
D03*
Y66847D02*
D03*
D92*
X273079Y400063D02*
D03*
X284496D02*
D03*
D93*
X16070Y70304D02*
D03*
Y81722D02*
D03*
X267307Y343158D02*
D03*
Y354575D02*
D03*
X324284Y68531D02*
D03*
Y57114D02*
D03*
X77969Y29052D02*
D03*
Y40470D02*
D03*
D105*
X416488Y230495D02*
D03*
X423575D02*
D03*
X416488Y240274D02*
D03*
X423575D02*
D03*
X416488Y250054D02*
D03*
X423575D02*
D03*
X416488Y173306D02*
D03*
X423575D02*
D03*
X416488Y181510D02*
D03*
X423575D02*
D03*
X313386Y31102D02*
D03*
X306299D02*
D03*
X66891Y90880D02*
D03*
X59804D02*
D03*
X66891Y73130D02*
D03*
X59804D02*
D03*
Y82005D02*
D03*
X66891D02*
D03*
D118*
X273425Y299449D02*
D03*
X265551D02*
D03*
X257677D02*
D03*
X249803D02*
D03*
X241929D02*
D03*
X234055D02*
D03*
X281299D02*
D03*
X289173D02*
D03*
X297047D02*
D03*
X304921D02*
D03*
Y307323D02*
D03*
X297047D02*
D03*
X289173D02*
D03*
X281299D02*
D03*
X234055D02*
D03*
X241929D02*
D03*
X249803D02*
D03*
X257677D02*
D03*
X265551D02*
D03*
X273425D02*
D03*
X352165D02*
D03*
X344291D02*
D03*
X336417D02*
D03*
X328543D02*
D03*
X320669D02*
D03*
X312795D02*
D03*
X360039D02*
D03*
X367913D02*
D03*
X375787D02*
D03*
X383661D02*
D03*
Y299449D02*
D03*
X375787D02*
D03*
X367913D02*
D03*
X360039D02*
D03*
X312795D02*
D03*
X320669D02*
D03*
X328543D02*
D03*
X336417D02*
D03*
X344291D02*
D03*
X352165D02*
D03*
X194685D02*
D03*
X186811D02*
D03*
X178937D02*
D03*
X171063D02*
D03*
X163189D02*
D03*
X155315D02*
D03*
X202559D02*
D03*
X210433D02*
D03*
X218307D02*
D03*
X226181D02*
D03*
Y307323D02*
D03*
X218307D02*
D03*
X210433D02*
D03*
X202559D02*
D03*
X155315D02*
D03*
X163189D02*
D03*
X171063D02*
D03*
X178937D02*
D03*
X186811D02*
D03*
X194685D02*
D03*
X115945D02*
D03*
X108071D02*
D03*
X100197D02*
D03*
X92323D02*
D03*
X84449D02*
D03*
X123819D02*
D03*
X131693D02*
D03*
X139567D02*
D03*
X147441D02*
D03*
Y299449D02*
D03*
X139567D02*
D03*
X131693D02*
D03*
X123819D02*
D03*
X76575D02*
D03*
X84449D02*
D03*
X92323D02*
D03*
X100197D02*
D03*
X108071D02*
D03*
X115945D02*
D03*
X186811Y126142D02*
D03*
X194685D02*
D03*
X202559D02*
D03*
X210433D02*
D03*
X218307D02*
D03*
X226181D02*
D03*
X178937D02*
D03*
X171063D02*
D03*
X163189D02*
D03*
X155315D02*
D03*
Y118268D02*
D03*
X163189D02*
D03*
X171063D02*
D03*
X178937D02*
D03*
X226181D02*
D03*
X218307D02*
D03*
X210433D02*
D03*
X202559D02*
D03*
X194685D02*
D03*
X186811D02*
D03*
X108071D02*
D03*
X115945D02*
D03*
X123819D02*
D03*
X131693D02*
D03*
X139567D02*
D03*
X147441D02*
D03*
X100197D02*
D03*
X92323D02*
D03*
X84449D02*
D03*
X76575D02*
D03*
Y126142D02*
D03*
X84449D02*
D03*
X92323D02*
D03*
X100197D02*
D03*
X147441D02*
D03*
X139567D02*
D03*
X131693D02*
D03*
X123819D02*
D03*
X115945D02*
D03*
X108071D02*
D03*
X265551D02*
D03*
X273425D02*
D03*
X281299D02*
D03*
X289173D02*
D03*
X297047D02*
D03*
X304921D02*
D03*
X257677D02*
D03*
X249803D02*
D03*
X241929D02*
D03*
X234055D02*
D03*
Y118268D02*
D03*
X241929D02*
D03*
X249803D02*
D03*
X257677D02*
D03*
X304921D02*
D03*
X297047D02*
D03*
X289173D02*
D03*
X281299D02*
D03*
X273425D02*
D03*
X265551D02*
D03*
X344291D02*
D03*
X352165D02*
D03*
X360039D02*
D03*
X367913D02*
D03*
X375787D02*
D03*
X336417D02*
D03*
X328543D02*
D03*
X320669D02*
D03*
X312795D02*
D03*
Y126142D02*
D03*
X320669D02*
D03*
X328543D02*
D03*
X336417D02*
D03*
X383661D02*
D03*
X375787D02*
D03*
X367913D02*
D03*
X360039D02*
D03*
X352165D02*
D03*
X344291D02*
D03*
X497049Y260833D02*
D03*
Y165558D02*
D03*
X128030Y72615D02*
D03*
Y62615D02*
D03*
X118030Y72615D02*
D03*
Y62615D02*
D03*
X108030Y72615D02*
D03*
X15118Y118937D02*
D03*
X5118D02*
D03*
X15118Y128937D02*
D03*
X5118D02*
D03*
X15118Y138937D02*
D03*
X5118D02*
D03*
X15118Y148937D02*
D03*
X5118D02*
D03*
X15118Y158937D02*
D03*
X5118D02*
D03*
X15118Y168937D02*
D03*
X5118D02*
D03*
X15118Y178937D02*
D03*
X5118D02*
D03*
X15118Y188937D02*
D03*
X5118D02*
D03*
X15118Y198937D02*
D03*
X5118D02*
D03*
X15118Y208937D02*
D03*
X5118D02*
D03*
X15118Y218937D02*
D03*
X5118D02*
D03*
X15118Y228937D02*
D03*
X5118D02*
D03*
X15118Y238937D02*
D03*
X5118D02*
D03*
X15118Y248937D02*
D03*
X5118D02*
D03*
X15118Y258937D02*
D03*
X5118D02*
D03*
X15118Y268937D02*
D03*
X5118D02*
D03*
X15118Y278937D02*
D03*
X5118D02*
D03*
X15118Y288937D02*
D03*
X5118D02*
D03*
X15118Y298937D02*
D03*
X5118D02*
D03*
X15118Y308937D02*
D03*
X132818Y39117D02*
D03*
X467378Y359386D02*
D03*
Y349386D02*
D03*
X457378Y359386D02*
D03*
X353543Y161339D02*
D03*
Y151339D02*
D03*
X506693Y124252D02*
D03*
X496693Y134252D02*
D03*
Y124252D02*
D03*
X486693Y134252D02*
D03*
Y124252D02*
D03*
X476693Y134252D02*
D03*
Y124252D02*
D03*
X466693Y134252D02*
D03*
Y124252D02*
D03*
D119*
X76575Y307323D02*
D03*
X383661Y118268D02*
D03*
X108030Y62615D02*
D03*
X122818Y39117D02*
D03*
X457378Y349386D02*
D03*
X506693Y134252D02*
D03*
D120*
X55118Y118937D02*
D03*
X405118D02*
D03*
Y308937D02*
D03*
X55118D02*
D03*
D121*
X478390Y318921D02*
D03*
X505949D02*
D03*
X478390Y385386D02*
D03*
X505949D02*
D03*
D122*
X194010Y403294D02*
D03*
X176490D02*
D03*
X106057D02*
D03*
X88538D02*
D03*
D123*
X201687Y415302D02*
D03*
X168813D02*
D03*
X113735D02*
D03*
X80861D02*
D03*
D124*
X59465Y10346D02*
D03*
D125*
X5118Y308937D02*
D03*
X353543Y141339D02*
D03*
D126*
X476894Y87512D02*
D03*
Y42512D02*
D03*
D127*
X496185Y48909D02*
D03*
Y81114D02*
D03*
Y38909D02*
D03*
Y91114D02*
D03*
D128*
X464886Y95504D02*
D03*
Y34520D02*
D03*
D129*
X441894Y42512D02*
D03*
D130*
Y52512D02*
D03*
Y62512D02*
D03*
Y72512D02*
D03*
Y82512D02*
D03*
X451894Y47512D02*
D03*
Y57512D02*
D03*
Y67512D02*
D03*
Y77512D02*
D03*
Y87512D02*
D03*
D131*
X158945Y70303D02*
D03*
Y66268D02*
D03*
Y62232D02*
D03*
X163567Y84579D02*
D03*
Y88614D02*
D03*
X172622Y84579D02*
D03*
Y88614D02*
D03*
X168095D02*
D03*
Y84579D02*
D03*
X177055Y70303D02*
D03*
Y66268D02*
D03*
Y62232D02*
D03*
X89189Y17236D02*
D03*
Y25307D02*
D03*
Y33378D02*
D03*
X29740D02*
D03*
Y25307D02*
D03*
Y17236D02*
D03*
X60039Y29528D02*
D03*
X67913D02*
D03*
X64173D02*
D03*
D132*
X28095Y65954D02*
D03*
Y70954D02*
D03*
Y75954D02*
D03*
Y80954D02*
D03*
X48961Y65954D02*
D03*
Y70954D02*
D03*
Y75954D02*
D03*
Y80954D02*
D03*
D133*
X177055Y66268D02*
D03*
X168000D02*
D03*
X158945D02*
D03*
D134*
X168000Y86740D02*
D03*
D135*
X275047Y368142D02*
D03*
X271307D02*
D03*
X267567D02*
D03*
Y377590D02*
D03*
X275047D02*
D03*
D136*
X383465Y28740D02*
D03*
X372441D02*
D03*
X383465Y20079D02*
D03*
X372441D02*
D03*
X158882Y42504D02*
D03*
X169905D02*
D03*
X168095Y52504D02*
D03*
X179118D02*
D03*
D137*
X392913Y20866D02*
D03*
Y27953D02*
D03*
D138*
X187008Y383819D02*
D03*
X188976D02*
D03*
X190945D02*
D03*
X187008Y379961D02*
D03*
X188976D02*
D03*
X190945D02*
D03*
X99055Y383819D02*
D03*
X101024D02*
D03*
X102992D02*
D03*
X99055Y379961D02*
D03*
X101024D02*
D03*
X102992D02*
D03*
D139*
X50197Y51493D02*
D03*
X65945D02*
D03*
D140*
X64173Y29528D02*
D03*
X42126D02*
D03*
D141*
X327740Y387567D02*
D03*
X332465D02*
D03*
X337189D02*
D03*
X327740Y382842D02*
D03*
X332465D02*
D03*
X337189D02*
D03*
X327740Y378118D02*
D03*
X332465D02*
D03*
X337189D02*
D03*
X340158Y48425D02*
D03*
Y43701D02*
D03*
X335433Y48425D02*
D03*
Y43701D02*
D03*
M02*
