G04 Layer_Physical_Order=3*
G04 Layer_Color=128*
%FSLAX25Y25*%
%MOIN*%
G70*
G01*
G75*
%ADD10C,0.00800*%
%ADD40C,0.04000*%
%ADD59C,0.07110*%
%ADD61C,0.16008*%
%ADD62C,0.10299*%
%ADD63C,0.09906*%
%ADD66C,0.11874*%
%ADD67C,0.07543*%
G04:AMPARAMS|DCode=68|XSize=75.433mil|YSize=75.433mil|CornerRadius=0mil|HoleSize=0mil|Usage=FLASHONLY|Rotation=0.000|XOffset=0mil|YOffset=0mil|HoleType=Round|Shape=Relief|Width=20mil|Gap=8mil|Entries=4|*
%AMTHD68*
7,0,0,0.07543,0.05943,0.02000,45*
%
%ADD68THD68*%
%ADD69C,0.16795*%
%ADD70C,0.08016*%
%ADD72C,0.05200*%
%ADD73C,0.00787*%
%ADD74C,0.07347*%
%ADD75O,0.07347X0.09906*%
%ADD76C,0.05299*%
D10*
X152897Y47890D02*
Y110672D01*
D40*
X0Y0D02*
Y425591D01*
X519449D01*
Y0D02*
Y425591D01*
X0Y0D02*
X519449D01*
D59*
X273425Y299449D02*
D03*
X265551D02*
D03*
X257677D02*
D03*
X249803D02*
D03*
X241929D02*
D03*
X234055D02*
D03*
X281299D02*
D03*
X289173D02*
D03*
X297047D02*
D03*
X304921D02*
D03*
Y307323D02*
D03*
X297047D02*
D03*
X289173D02*
D03*
X281299D02*
D03*
X234055D02*
D03*
X241929D02*
D03*
X249803D02*
D03*
X257677D02*
D03*
X265551D02*
D03*
X273425D02*
D03*
X352165D02*
D03*
X344291D02*
D03*
X336417D02*
D03*
X328543D02*
D03*
X320669D02*
D03*
X312795D02*
D03*
X360039D02*
D03*
X367913D02*
D03*
X375787D02*
D03*
X383661D02*
D03*
X375787Y299449D02*
D03*
X367913D02*
D03*
X360039D02*
D03*
X312795D02*
D03*
X320669D02*
D03*
X328543D02*
D03*
X336417D02*
D03*
X344291D02*
D03*
X352165D02*
D03*
X194685D02*
D03*
X186811D02*
D03*
X178937D02*
D03*
X171063D02*
D03*
X163189D02*
D03*
X155315D02*
D03*
X202559D02*
D03*
X210433D02*
D03*
X218307D02*
D03*
X226181D02*
D03*
Y307323D02*
D03*
X218307D02*
D03*
X210433D02*
D03*
X202559D02*
D03*
X155315D02*
D03*
X163189D02*
D03*
X171063D02*
D03*
X178937D02*
D03*
X186811D02*
D03*
X194685D02*
D03*
X115945D02*
D03*
X108071D02*
D03*
X100197D02*
D03*
X92323D02*
D03*
X84449D02*
D03*
X76575D02*
D03*
X123819D02*
D03*
X131693D02*
D03*
X139567D02*
D03*
X147441D02*
D03*
Y299449D02*
D03*
X139567D02*
D03*
X131693D02*
D03*
X123819D02*
D03*
X76575D02*
D03*
X84449D02*
D03*
X92323D02*
D03*
X100197D02*
D03*
X108071D02*
D03*
X115945D02*
D03*
X186811Y126142D02*
D03*
X194685D02*
D03*
X202559D02*
D03*
X210433D02*
D03*
X218307D02*
D03*
X226181D02*
D03*
X178937D02*
D03*
X171063D02*
D03*
X163189D02*
D03*
X155315D02*
D03*
Y118268D02*
D03*
X163189D02*
D03*
X171063D02*
D03*
X178937D02*
D03*
X226181D02*
D03*
X218307D02*
D03*
X210433D02*
D03*
X202559D02*
D03*
X194685D02*
D03*
X186811D02*
D03*
X108071D02*
D03*
X115945D02*
D03*
X123819D02*
D03*
X131693D02*
D03*
X139567D02*
D03*
X147441D02*
D03*
X100197D02*
D03*
X92323D02*
D03*
X84449D02*
D03*
X76575D02*
D03*
Y126142D02*
D03*
X84449D02*
D03*
X92323D02*
D03*
X100197D02*
D03*
X147441D02*
D03*
X139567D02*
D03*
X131693D02*
D03*
X123819D02*
D03*
X115945D02*
D03*
X108071D02*
D03*
X265551D02*
D03*
X273425D02*
D03*
X281299D02*
D03*
X289173D02*
D03*
X297047D02*
D03*
X304921D02*
D03*
X257677D02*
D03*
X249803D02*
D03*
X241929D02*
D03*
X234055D02*
D03*
Y118268D02*
D03*
X241929D02*
D03*
X249803D02*
D03*
X257677D02*
D03*
X304921D02*
D03*
X297047D02*
D03*
X289173D02*
D03*
X281299D02*
D03*
X273425D02*
D03*
X265551D02*
D03*
X344291D02*
D03*
X352165D02*
D03*
X360039D02*
D03*
X367913D02*
D03*
X375787D02*
D03*
X383661D02*
D03*
X336417D02*
D03*
X328543D02*
D03*
X320669D02*
D03*
X312795D02*
D03*
Y126142D02*
D03*
X320669D02*
D03*
X328543D02*
D03*
X336417D02*
D03*
X383661D02*
D03*
X375787D02*
D03*
X367913D02*
D03*
X360039D02*
D03*
X352165D02*
D03*
X344291D02*
D03*
D61*
X55118Y118937D02*
D03*
X405118D02*
D03*
Y308937D02*
D03*
X55118D02*
D03*
D62*
X478390Y318921D02*
D03*
X505949D02*
D03*
X478390Y385386D02*
D03*
X505949D02*
D03*
X464886Y95504D02*
D03*
Y34520D02*
D03*
D63*
X497049Y260833D02*
D03*
Y165558D02*
D03*
D66*
X59465Y10346D02*
D03*
D67*
X108030Y62615D02*
D03*
X15118Y118937D02*
D03*
X5118D02*
D03*
X15118Y128937D02*
D03*
X5118D02*
D03*
X15118Y138937D02*
D03*
X5118D02*
D03*
X15118Y148937D02*
D03*
X5118D02*
D03*
X15118Y158937D02*
D03*
X5118D02*
D03*
X15118Y168937D02*
D03*
X5118D02*
D03*
X15118Y178937D02*
D03*
X5118D02*
D03*
X15118Y188937D02*
D03*
X5118D02*
D03*
X15118Y198937D02*
D03*
X5118D02*
D03*
X15118Y208937D02*
D03*
X5118D02*
D03*
X15118Y218937D02*
D03*
X5118D02*
D03*
X15118Y228937D02*
D03*
X5118D02*
D03*
X15118Y238937D02*
D03*
X5118D02*
D03*
X15118Y248937D02*
D03*
X5118D02*
D03*
X15118Y258937D02*
D03*
X5118D02*
D03*
X15118Y268937D02*
D03*
X5118D02*
D03*
X15118Y278937D02*
D03*
X5118D02*
D03*
X15118Y288937D02*
D03*
X5118D02*
D03*
X15118Y298937D02*
D03*
X5118D02*
D03*
Y308937D02*
D03*
X132818Y39117D02*
D03*
X122818D02*
D03*
X467378Y359386D02*
D03*
Y349386D02*
D03*
X457378Y359386D02*
D03*
Y349386D02*
D03*
X441894Y42512D02*
D03*
Y52512D02*
D03*
Y72512D02*
D03*
Y82512D02*
D03*
X451894Y47512D02*
D03*
Y57512D02*
D03*
Y77512D02*
D03*
Y87512D02*
D03*
X353543Y161339D02*
D03*
Y151339D02*
D03*
X506693Y134252D02*
D03*
Y124252D02*
D03*
X496693Y134252D02*
D03*
Y124252D02*
D03*
X486693Y134252D02*
D03*
Y124252D02*
D03*
X466693Y134252D02*
D03*
Y124252D02*
D03*
D68*
X128030Y72615D02*
D03*
Y62615D02*
D03*
X118030Y72615D02*
D03*
Y62615D02*
D03*
X108030Y72615D02*
D03*
X15118Y308937D02*
D03*
X441894Y62512D02*
D03*
X451894Y67512D02*
D03*
X353543Y141339D02*
D03*
X476693Y134252D02*
D03*
Y124252D02*
D03*
D69*
X476894Y87512D02*
D03*
Y42512D02*
D03*
D70*
X496185Y48909D02*
D03*
Y81114D02*
D03*
Y38909D02*
D03*
Y91114D02*
D03*
D72*
X446850Y152559D02*
D03*
X30941Y310630D02*
D03*
X84252Y239961D02*
D03*
Y243961D02*
D03*
X71752Y258937D02*
D03*
Y253839D02*
D03*
X71752Y265628D02*
D03*
Y269628D02*
D03*
Y273628D02*
D03*
Y277628D02*
D03*
Y281628D02*
D03*
X308563Y147047D02*
D03*
X262697D02*
D03*
X284744Y151047D02*
D03*
X262697D02*
D03*
X293604Y155047D02*
D03*
X262697D02*
D03*
X158760Y203839D02*
D03*
X239941Y185728D02*
D03*
X193209Y235433D02*
D03*
X188977Y232480D02*
D03*
X42028Y248937D02*
D03*
Y243839D02*
D03*
Y238937D02*
D03*
Y233839D02*
D03*
X32480Y142224D02*
D03*
X89075Y228937D02*
D03*
X76772D02*
D03*
X332283Y30709D02*
D03*
X337413Y30665D02*
D03*
X306299Y234252D02*
D03*
X301575D02*
D03*
X297244D02*
D03*
X306299Y212500D02*
D03*
X301575D02*
D03*
X297244D02*
D03*
X311024Y212598D02*
D03*
X315354D02*
D03*
X320079D02*
D03*
X324803D02*
D03*
Y234252D02*
D03*
X320079D02*
D03*
X315354D02*
D03*
X311024D02*
D03*
X310236Y159055D02*
D03*
X300394D02*
D03*
X310236Y168898D02*
D03*
X300394D02*
D03*
X277307Y343158D02*
D03*
X266043Y400063D02*
D03*
X177055Y70303D02*
D03*
Y66268D02*
D03*
Y62232D02*
D03*
X89189Y17236D02*
D03*
Y25307D02*
D03*
Y33378D02*
D03*
X29740D02*
D03*
Y25307D02*
D03*
Y17236D02*
D03*
X293984Y381102D02*
D03*
Y385612D02*
D03*
X134941Y386614D02*
D03*
X373886Y370512D02*
D03*
X164370Y10087D02*
D03*
X323228Y85370D02*
D03*
X344543D02*
D03*
X474713Y293094D02*
D03*
X125441Y92551D02*
D03*
X348496Y416835D02*
D03*
X488781Y150648D02*
D03*
X484057Y278499D02*
D03*
X303681Y340024D02*
D03*
X321382Y337720D02*
D03*
X331350D02*
D03*
X341961Y337689D02*
D03*
X352748D02*
D03*
X370571Y344756D02*
D03*
X373886Y380874D02*
D03*
Y390307D02*
D03*
Y399882D02*
D03*
X510280Y408366D02*
D03*
Y341902D02*
D03*
X488799Y359386D02*
D03*
X299630Y36173D02*
D03*
X398031Y40945D02*
D03*
Y88976D02*
D03*
X370866Y69685D02*
D03*
X365354Y20079D02*
D03*
X397638Y68898D02*
D03*
X324284Y74016D02*
D03*
X328625Y58481D02*
D03*
X256299Y335827D02*
D03*
X314961Y404331D02*
D03*
X311024D02*
D03*
X304331D02*
D03*
X324366Y31091D02*
D03*
X408565Y181503D02*
D03*
X333202Y400063D02*
D03*
X294291Y346378D02*
D03*
X298130D02*
D03*
X223005Y386573D02*
D03*
X144836Y386607D02*
D03*
X149836D02*
D03*
X237789D02*
D03*
X232788D02*
D03*
X283465Y335728D02*
D03*
X439437Y336638D02*
D03*
X445433Y397965D02*
D03*
X265355Y10138D02*
D03*
X231693Y10039D02*
D03*
X198032Y10039D02*
D03*
X227828Y386573D02*
D03*
X139764Y386614D02*
D03*
X271307Y361417D02*
D03*
X351599Y376993D02*
D03*
Y373064D02*
D03*
X331004Y361024D02*
D03*
X326870D02*
D03*
X394094Y376150D02*
D03*
Y386701D02*
D03*
X494629Y302976D02*
D03*
X464862Y334866D02*
D03*
X408565Y230420D02*
D03*
Y250105D02*
D03*
X341461Y402091D02*
D03*
X339567Y258661D02*
D03*
X345472D02*
D03*
X408565Y174810D02*
D03*
X387598Y197441D02*
D03*
X313347Y283142D02*
D03*
Y257031D02*
D03*
X379921Y217428D02*
D03*
X312795Y392815D02*
D03*
Y388681D02*
D03*
X194697Y52276D02*
D03*
X249803Y39567D02*
D03*
X180709Y3394D02*
D03*
X214709D02*
D03*
X248709D02*
D03*
X230512Y103051D02*
D03*
X253754Y103051D02*
D03*
X408565Y240263D02*
D03*
X368110Y244094D02*
D03*
X362205D02*
D03*
X364173Y177559D02*
D03*
X368110Y181496D02*
D03*
X34941Y319882D02*
D03*
X187992Y375984D02*
D03*
X191929D02*
D03*
X173327Y379921D02*
D03*
X183071Y383858D02*
D03*
X95118D02*
D03*
X103976Y375984D02*
D03*
X80512Y379921D02*
D03*
X99410Y375984D02*
D03*
X247047Y386606D02*
D03*
X158465Y386811D02*
D03*
X337894Y61713D02*
D03*
X419291Y42512D02*
D03*
X340650Y63878D02*
D03*
X419291Y82512D02*
D03*
X38386Y78740D02*
D03*
Y68898D02*
D03*
X76772Y58071D02*
D03*
Y48228D02*
D03*
X14764Y91535D02*
D03*
Y86614D02*
D03*
X75787Y84646D02*
D03*
X15748Y59055D02*
D03*
Y63976D02*
D03*
X38386Y73819D02*
D03*
X76772Y53150D02*
D03*
X60039Y29528D02*
D03*
X67913D02*
D03*
X64173D02*
D03*
X352854Y20079D02*
D03*
X349114D02*
D03*
D73*
X340551Y96063D02*
X457677D01*
X340551Y24409D02*
Y96063D01*
Y24409D02*
X457677D01*
Y96063D01*
X68954Y314904D02*
X219843D01*
X68954Y110672D02*
Y314904D01*
Y110672D02*
X152897D01*
X113049Y47890D02*
X152897D01*
X113049D02*
Y68010D01*
X132973D02*
Y87795D01*
X27559D02*
X132973D01*
X27559D02*
Y351083D01*
X288681Y333760D02*
Y408563D01*
X288681Y408563D01*
X0Y408563D02*
X288681D01*
X152897Y75295D02*
X162402D01*
Y0D02*
Y75295D01*
X113049Y68010D02*
X123038D01*
X132973D01*
X123038Y57112D02*
Y68010D01*
Y57112D02*
X142692D01*
Y99410D01*
X39370D02*
X142692D01*
X39370D02*
Y332677D01*
X84646Y351083D02*
Y390748D01*
X131836D01*
Y332677D02*
Y390748D01*
X172652Y332677D02*
Y390748D01*
X27559Y351083D02*
X84646D01*
X39370Y332677D02*
X172652D01*
Y390748D02*
X219843D01*
Y314904D02*
Y390748D01*
X219843Y314904D02*
X379724D01*
Y295276D02*
Y314904D01*
Y295276D02*
X394882D01*
Y333760D01*
X288681D02*
X394882D01*
D74*
X194010Y403294D02*
D03*
X176490D02*
D03*
X106057D02*
D03*
X88538D02*
D03*
D75*
X201687Y415302D02*
D03*
X168813D02*
D03*
X113735D02*
D03*
X80861D02*
D03*
D76*
X327740Y387567D02*
D03*
X332465D02*
D03*
X337189D02*
D03*
X327740Y382842D02*
D03*
X332465D02*
D03*
X337189D02*
D03*
X327740Y378118D02*
D03*
X332465D02*
D03*
X337189D02*
D03*
X340158Y48425D02*
D03*
Y43701D02*
D03*
X335433Y48425D02*
D03*
Y43701D02*
D03*
M02*
