G04 Layer_Color=16711935*
%FSLAX25Y25*%
%MOIN*%
G70*
G01*
G75*
%ADD39C,0.01000*%
%ADD43C,0.03937*%
%ADD144C,0.00600*%
D39*
X522417Y0D02*
X529543D01*
X522417Y425591D02*
X529543D01*
X528543Y0D02*
Y183144D01*
Y239247D02*
Y425591D01*
Y0D02*
X530543Y6000D01*
X526543D02*
X528543Y0D01*
X526543Y419591D02*
X528543Y425591D01*
X530543Y419591D01*
X519449Y-9858D02*
Y-2968D01*
X0Y-9858D02*
Y-2968D01*
X286176Y-8858D02*
X519449D01*
X0D02*
X230073D01*
X513449Y-6858D02*
X519449Y-8858D01*
X513449Y-10858D02*
X519449Y-8858D01*
X0D02*
X6000Y-10858D01*
X0Y-8858D02*
X6000Y-6858D01*
D43*
X0Y0D02*
Y425591D01*
X519449Y0D02*
Y425591D01*
X0D02*
X519449D01*
X0Y0D02*
X519449D01*
D144*
X528858Y184744D02*
X528572Y185315D01*
X527715Y186172D01*
X533714D01*
X527715Y190857D02*
X528001Y190000D01*
X528858Y189428D01*
X530286Y189143D01*
X531143D01*
X532571Y189428D01*
X533428Y190000D01*
X533714Y190857D01*
Y191428D01*
X533428Y192285D01*
X532571Y192856D01*
X531143Y193142D01*
X530286D01*
X528858Y192856D01*
X528001Y192285D01*
X527715Y191428D01*
Y190857D01*
Y195913D02*
X528001Y195056D01*
X528572Y194770D01*
X529143D01*
X529715Y195056D01*
X530000Y195627D01*
X530286Y196770D01*
X530572Y197627D01*
X531143Y198198D01*
X531714Y198484D01*
X532571D01*
X533143Y198198D01*
X533428Y197912D01*
X533714Y197055D01*
Y195913D01*
X533428Y195056D01*
X533143Y194770D01*
X532571Y194485D01*
X531714D01*
X531143Y194770D01*
X530572Y195342D01*
X530286Y196198D01*
X530000Y197341D01*
X529715Y197912D01*
X529143Y198198D01*
X528572D01*
X528001Y197912D01*
X527715Y197055D01*
Y195913D01*
X533428Y200398D02*
X533714Y200112D01*
X533428Y199826D01*
X533143Y200112D01*
X533428Y200398D01*
X533999D01*
X534571Y200112D01*
X534856Y199826D01*
X528858Y201712D02*
X528572Y202283D01*
X527715Y203140D01*
X533714D01*
X527715Y207825D02*
X528001Y206968D01*
X528858Y206396D01*
X530286Y206111D01*
X531143D01*
X532571Y206396D01*
X533428Y206968D01*
X533714Y207825D01*
Y208396D01*
X533428Y209253D01*
X532571Y209824D01*
X531143Y210110D01*
X530286D01*
X528858Y209824D01*
X528001Y209253D01*
X527715Y208396D01*
Y207825D01*
X526572Y218165D02*
X527144Y217594D01*
X528001Y217023D01*
X529143Y216451D01*
X530572Y216166D01*
X531714D01*
X533143Y216451D01*
X534285Y217023D01*
X535142Y217594D01*
X535713Y218165D01*
X527144Y217594D02*
X528286Y217023D01*
X529143Y216737D01*
X530572Y216451D01*
X531714D01*
X533143Y216737D01*
X533999Y217023D01*
X535142Y217594D01*
X529715Y219308D02*
X533714D01*
X530857D02*
X530000Y220165D01*
X529715Y220736D01*
Y221593D01*
X530000Y222164D01*
X530857Y222450D01*
X533714D01*
X530857D02*
X530000Y223307D01*
X529715Y223878D01*
Y224735D01*
X530000Y225307D01*
X530857Y225592D01*
X533714D01*
X529715Y227478D02*
X533714D01*
X530857D02*
X530000Y228334D01*
X529715Y228906D01*
Y229763D01*
X530000Y230334D01*
X530857Y230620D01*
X533714D01*
X530857D02*
X530000Y231477D01*
X529715Y232048D01*
Y232905D01*
X530000Y233476D01*
X530857Y233762D01*
X533714D01*
X526572Y235647D02*
X527144Y236219D01*
X528001Y236790D01*
X529143Y237361D01*
X530572Y237647D01*
X531714D01*
X533143Y237361D01*
X534285Y236790D01*
X535142Y236219D01*
X535713Y235647D01*
X527144Y236219D02*
X528286Y236790D01*
X529143Y237075D01*
X530572Y237361D01*
X531714D01*
X533143Y237075D01*
X533999Y236790D01*
X535142Y236219D01*
X231673Y-9173D02*
X232244Y-8887D01*
X233101Y-8030D01*
Y-14029D01*
X236643Y-8030D02*
X239786D01*
X238072Y-10315D01*
X238929D01*
X239500Y-10601D01*
X239786Y-10887D01*
X240071Y-11744D01*
Y-12315D01*
X239786Y-13172D01*
X239214Y-13743D01*
X238357Y-14029D01*
X237500D01*
X236643Y-13743D01*
X236358Y-13457D01*
X236072Y-12886D01*
X241414Y-9173D02*
X241985Y-8887D01*
X242842Y-8030D01*
Y-14029D01*
X246384Y-13743D02*
X246098Y-14029D01*
X245813Y-13743D01*
X246098Y-13457D01*
X246384Y-13743D01*
Y-14314D01*
X246098Y-14886D01*
X245813Y-15171D01*
X251412Y-10030D02*
X251126Y-10887D01*
X250555Y-11458D01*
X249698Y-11744D01*
X249412D01*
X248555Y-11458D01*
X247984Y-10887D01*
X247698Y-10030D01*
Y-9744D01*
X247984Y-8887D01*
X248555Y-8316D01*
X249412Y-8030D01*
X249698D01*
X250555Y-8316D01*
X251126Y-8887D01*
X251412Y-10030D01*
Y-11458D01*
X251126Y-12886D01*
X250555Y-13743D01*
X249698Y-14029D01*
X249126D01*
X248269Y-13743D01*
X247984Y-13172D01*
X255896Y-8030D02*
X253040Y-12029D01*
X257325D01*
X255896Y-8030D02*
Y-14029D01*
X265094Y-6887D02*
X264523Y-7459D01*
X263952Y-8316D01*
X263380Y-9458D01*
X263095Y-10887D01*
Y-12029D01*
X263380Y-13457D01*
X263952Y-14600D01*
X264523Y-15457D01*
X265094Y-16028D01*
X264523Y-7459D02*
X263952Y-8601D01*
X263666Y-9458D01*
X263380Y-10887D01*
Y-12029D01*
X263666Y-13457D01*
X263952Y-14314D01*
X264523Y-15457D01*
X266237Y-10030D02*
Y-14029D01*
Y-11172D02*
X267094Y-10315D01*
X267665Y-10030D01*
X268522D01*
X269093Y-10315D01*
X269379Y-11172D01*
Y-14029D01*
Y-11172D02*
X270236Y-10315D01*
X270807Y-10030D01*
X271664D01*
X272236Y-10315D01*
X272521Y-11172D01*
Y-14029D01*
X274407Y-10030D02*
Y-14029D01*
Y-11172D02*
X275264Y-10315D01*
X275835Y-10030D01*
X276692D01*
X277263Y-10315D01*
X277549Y-11172D01*
Y-14029D01*
Y-11172D02*
X278406Y-10315D01*
X278977Y-10030D01*
X279834D01*
X280405Y-10315D01*
X280691Y-11172D01*
Y-14029D01*
X282576Y-6887D02*
X283148Y-7459D01*
X283719Y-8316D01*
X284290Y-9458D01*
X284576Y-10887D01*
Y-12029D01*
X284290Y-13457D01*
X283719Y-14600D01*
X283148Y-15457D01*
X282576Y-16028D01*
X283148Y-7459D02*
X283719Y-8601D01*
X284005Y-9458D01*
X284290Y-10887D01*
Y-12029D01*
X284005Y-13457D01*
X283719Y-14314D01*
X283148Y-15457D01*
M02*
